<?xml version="1.0" encoding="UTF-8"?>
<svg id="Layer_2" data-name="Layer 2" xmlns="http://www.w3.org/2000/svg" viewBox="0 0 72.36 70.86">
  <defs>
    <style>
      .cls-1 {
        fill: #efb9ad;
      }

      .cls-2 {
        fill: #1f2556;
      }

      .cls-3 {
        fill: #1f2655;
      }
    </style>
  </defs>
  <g id="Layer_1-2" data-name="Layer 1">
    <path class="cls-3" d="m67.38,42.8c-3.49-3.38-8.11-4.86-12.6-4.52h0s-13.91-.96-17.87-4.14c-3.6-2.9-4.23-17.26-4.23-17.26h-.01c.14-4.44-1.5-8.94-4.96-12.28h0C21.22-1.68,10.87-1.5,4.59,4.99h0c-6.28,6.5-6.1,16.85.4,23.12h0c2.82,2.72,6.36,4.22,9.97,4.53h0s.02,0,.03,0c.59.05,1.18.06,1.77.05,4.27.17,14.82.89,17.09,3.99,3.41,4.65,5.38,15.85,5.96,19.6.03.28.08.56.13.84.04.26.06.41.06.41h0c.6,3.22,2.15,6.29,4.69,8.75h0c6.48,6.26,16.82,6.09,23.08-.4s6.09-16.82-.4-23.08Z"/>
    <path class="cls-1" d="m12.71,19.2l-1.23,5.47c-.07.29-.23.51-.47.67-.25.16-.52.21-.81.14-.3-.07-.52-.23-.68-.47-.16-.25-.21-.52-.14-.81l3.56-15.79c.21-.95.66-1.64,1.35-2.07.52-.32,1.13-.48,1.83-.48s1.32.17,1.83.5c.69.45,1.14,1.13,1.35,2.06l3.55,15.79c.07.29.02.56-.14.81-.16.24-.38.4-.67.47-.29.06-.56.01-.81-.14s-.41-.38-.47-.67l-1.23-5.47h-6.81Zm6.34-2.1l-1.86-8.23c-.07-.35-.21-.58-.41-.71-.16-.1-.38-.16-.67-.16-.31,0-.53.05-.68.14-.19.11-.33.35-.41.72l-1.85,8.23h5.87Z"/>
    <path class="cls-2" d="m56.68,5.88c1.75,0,3.24.62,4.47,1.85,1.24,1.24,1.86,2.73,1.86,4.48v6.99c0,1.74-.62,3.23-1.86,4.47-1.23,1.23-2.72,1.85-4.47,1.85h-4.37c-.3,0-.55-.1-.76-.31s-.31-.46-.31-.76V6.96c0-.3.1-.55.31-.76s.46-.31.76-.31h4.37Zm-3.29,2.15v15.34h3.29c1.14,0,2.13-.41,2.95-1.23.81-.81,1.22-1.79,1.22-2.93v-6.99c0-1.15-.41-2.13-1.22-2.95-.82-.82-1.8-1.23-2.95-1.23h-3.29Z"/>
    <path class="cls-2" d="m12.62,63.22c0,.3-.1.55-.31.76-.21.21-.47.31-.77.31s-.55-.1-.76-.31-.31-.46-.31-.76v-17.48c0-.3.1-.55.31-.76s.46-.31.76-.31h6.99c.31,0,.56.1.77.31.21.21.31.46.31.76s-.11.55-.31.76c-.21.21-.47.31-.77.31h-5.91v6.59h5.04c.3,0,.55.1.76.31.21.21.31.47.31.77s-.1.55-.31.76c-.21.21-.46.31-.76.31h-5.04v7.66Z"/>
    <path class="cls-1" d="m53.39,63.22c0,.3-.1.55-.31.76-.21.21-.47.31-.77.31s-.55-.1-.76-.31-.31-.46-.31-.76v-17.48c0-.3.1-.55.31-.76s.46-.31.76-.31h3.94c1.5,0,2.79.53,3.85,1.58,1.06,1.06,1.6,2.35,1.6,3.86s-.53,2.79-1.6,3.85c-1.07,1.07-2.35,1.6-3.85,1.6h-2.86v7.66Zm0-16.41v6.59h2.86c.91,0,1.68-.32,2.33-.97.64-.64.96-1.41.96-2.32s-.32-1.69-.96-2.33c-.65-.65-1.42-.97-2.33-.97h-2.86Z"/>
  </g>
</svg>