<svg xmlns="http://www.w3.org/2000/svg" width="424.32" height="161.71" viewBox="0 0 424.32 161.71"><defs><style>.a{fill:#c4c9d7;}</style></defs><title>Asset 9</title><path class="a" d="M65.92,8.59h5.74L82.27,40.72H77l-5.17-17.5c-1-3.48-2.1-7.06-3-10.7h-.2c-1,3.64-2,7.22-3,10.7l-5.26,17.5h-5Zm-4.65,19h14.9v3.93H61.27Z" transform="translate(0 -0.78)"/><path class="a" d="M92.47,8.59h8.18c9.56,0,15,5.51,15,15.92s-5.47,16.21-14.78,16.21H92.47Zm7.86,28.11c6.7,0,10.27-4.17,10.27-12.19s-3.57-11.9-10.27-11.9H97.4V36.7Z" transform="translate(0 -0.78)"/><path class="a" d="M128.07,8.59h20.25v4.16H133v9.11h13V26H133V36.57h15.81v4.15H128.07Z" transform="translate(0 -0.78)"/><path class="a" d="M163.32,8.59h4.89v28h15.47v4.15H163.32Z" transform="translate(0 -0.78)"/><path class="a" d="M203.29,8.59H209l10.61,32.13h-5.26l-5.18-17.5c-1-3.48-2.09-7.06-3-10.7H206c-1,3.64-1.95,7.22-3,10.7l-5.26,17.5h-5Zm-4.65,19h14.9v3.93h-14.9Z" transform="translate(0 -0.78)"/><path class="a" d="M230.18,36.57H238V12.75h-7.86V8.59h20.64v4.16H243V36.57h7.86v4.15H230.18Z" transform="translate(0 -0.78)"/><path class="a" d="M264.18,8.59h8.18c9.56,0,15,5.51,15,15.92s-5.47,16.21-14.78,16.21h-8.43ZM272,36.7c6.7,0,10.27-4.17,10.27-12.19s-3.57-11.9-10.27-11.9h-2.93V36.7Z" transform="translate(0 -0.78)"/><path class="a" d="M299.79,8.59H320v4.16H304.71v9.11h13V26h-13V36.57h15.81v4.15H299.79Z" transform="translate(0 -0.78)"/><path class="a" d="M59.22,65.86H80.47v6.07h-14v7.41h12v6.07h-12V97.83H59.22Z" transform="translate(0 -0.78)"/><path class="a" d="M91.55,85.52V65.86H98.8v20.4c0,3.83,1.4,5.91,4.42,5.91s4.51-2.08,4.51-5.91V65.86h7V85.52c0,8.31-3.74,12.9-11.5,12.9S91.55,93.83,91.55,85.52Z" transform="translate(0 -0.78)"/><path class="a" d="M126,65.86h7.42l6.72,15.9,2.74,7h.17c-.32-3.36-1-7.84-1-11.62V65.86H149v32h-7.42L134.81,81.9l-2.74-7h-.17c.32,3.54,1,7.82,1,11.58V97.83H126Z" transform="translate(0 -0.78)"/><path class="a" d="M159.76,82c0-10.59,6.7-16.75,15.27-16.75a13.73,13.73,0,0,1,9.54,4.07l-4,4.48a7.75,7.75,0,0,0-5.55-2.3c-4.54,0-7.85,3.86-7.85,10.27,0,6.57,3.31,10.38,8.13,10.38a7.75,7.75,0,0,0,5.76-2.82l4,4.37a13.2,13.2,0,0,1-10.49,4.7C166.62,98.42,159.76,92.81,159.76,82Z" transform="translate(0 -0.78)"/><path class="a" d="M202.54,71.93H193V65.86h26.4v6.07h-9.58v25.9h-7.24Z" transform="translate(0 -0.78)"/><path class="a" d="M229.42,91.77h7.46V71.93h-7.46V65.86h22.16v6.07h-7.46V91.77h7.46v6.06H229.42Z" transform="translate(0 -0.78)"/><path class="a" d="M262,81.7c0-10.68,5.24-16.43,12.85-16.43S287.7,71,287.7,81.7c0,10.94-5.24,16.72-12.86,16.72S262,92.64,262,81.7Zm18.29,0c0-6.64-2.1-10.18-5.44-10.18s-5.44,3.54-5.44,10.18c0,6.9,2.11,10.47,5.44,10.47S280.28,88.6,280.28,81.7Z" transform="translate(0 -0.78)"/><path class="a" d="M297.71,65.86h7.42l6.73,15.9,2.73,7h.17c-.32-3.36-1-7.84-1-11.62V65.86h6.9v32h-7.42L306.52,81.9l-2.74-7h-.17c.32,3.54,1,7.82,1,11.58V97.83h-6.9Z" transform="translate(0 -0.78)"/><path class="a" d="M339.19,65.86h8.67l10,32h-7.67L346,81.65c-.81-3.19-1.78-6.94-2.55-10.31h-.19c-.79,3.37-1.68,7.12-2.49,10.31l-4.15,16.18h-7.4Zm-3.37,18.73h15.3v5.64h-15.3Z" transform="translate(0 -0.78)"/><path class="a" d="M368.38,65.86h7.22V91.77h14.23v6.06H368.38Z" transform="translate(0 -0.78)"/><path class="a" d="M57.73,125.33H69.07c6.94,0,12.53,2.51,12.53,10.28,0,7.53-5.75,10.85-12.53,10.85H65V157.3H57.73Zm10.92,15.38c4,0,5.85-1.77,5.85-5.1s-2-4.54-5.85-4.54H65v9.64Z" transform="translate(0 -0.78)"/><path class="a" d="M91.82,125.33h11.37c6.77,0,12.34,2.35,12.34,10,0,7.35-5.57,10.51-12.34,10.51H99.07v11.5H91.82Zm10.78,14.73c3.8,0,5.84-1.64,5.84-4.77s-2-4.22-5.84-4.22H99.07v9Zm4.26-.81,10.21,18.05H109l-7.11-13.41Z" transform="translate(0 -0.78)"/><path class="a" d="M124.62,141.17c0-10.69,5.24-16.43,12.85-16.43s12.86,5.74,12.86,16.43c0,10.93-5.24,16.72-12.86,16.72S124.62,152.1,124.62,141.17Zm18.29,0c0-6.65-2.1-10.18-5.44-10.18S132,134.52,132,141.17c0,6.89,2.11,10.47,5.44,10.47S142.91,148.06,142.91,141.17Z" transform="translate(0 -0.78)"/><path class="a" d="M159.24,141.49c0-10.68,6.5-16.75,14.81-16.75a12.69,12.69,0,0,1,9.34,4.07l-4,4.47a6.9,6.9,0,0,0-5.35-2.29c-4.2,0-7.34,3.86-7.34,10.26,0,6.57,2.59,10.39,7.63,10.39a4.84,4.84,0,0,0,3.1-.95v-5.52h-4.65v-5.9h11.13V154a15.33,15.33,0,0,1-10,3.87C165.75,157.89,159.24,152.27,159.24,141.49Z" transform="translate(0 -0.78)"/><path class="a" d="M194.85,125.33h11.36c6.78,0,12.35,2.35,12.35,10,0,7.35-5.57,10.51-12.35,10.51H202.1v11.5h-7.25Zm10.77,14.73c3.81,0,5.84-1.64,5.84-4.77s-2-4.22-5.84-4.22H202.1v9Zm4.27-.81,10.2,18.05H212l-7.12-13.41Z" transform="translate(0 -0.78)"/><path class="a" d="M236.16,125.33h8.68l9.95,32h-7.67L243,141.11c-.81-3.19-1.79-6.93-2.56-10.31h-.19c-.78,3.38-1.67,7.12-2.48,10.31l-4.16,16.19h-7.4Zm-3.36,18.73h15.29v5.64H232.8Z" transform="translate(0 -0.78)"/><path class="a" d="M263,125.33h7.59l3.13,11.33,1.08,4.42h.19l1.06-4.42,3.15-11.33h7.59v32h-6.12v-9.9c0-3.6.63-11.39,1-14.85h-.15L279,141.13l-2.49,7.7H273l-2.53-7.7-2.29-8.58H268c.37,3.46,1,11.25,1,14.85v9.9h-6Z" transform="translate(0 -0.78)"/><path class="a" d="M297.29,125.33h7.59L308,136.66l1.08,4.42h.19l1.06-4.42,3.15-11.33h7.59v32H315v-9.9c0-3.6.63-11.39,1-14.85h-.15l-2.45,8.58-2.49,7.7h-3.51l-2.53-7.7-2.29-8.58h-.17c.37,3.46,1,11.25,1,14.85v9.9h-6Z" transform="translate(0 -0.78)"/><path class="a" d="M332.45,151.23h7.46V131.4h-7.46v-6.07h22.16v6.07h-7.46v19.83h7.46v6.07H332.45Z" transform="translate(0 -0.78)"/><path class="a" d="M366.4,125.33h7.41l6.73,15.89,2.74,7h.17c-.33-3.37-1-7.85-1-11.62v-11.3h6.89v32h-7.41l-6.73-15.93-2.74-7h-.17c.33,3.53,1,7.82,1,11.58V157.3H366.4Z" transform="translate(0 -0.78)"/><path class="a" d="M399.64,141.49c0-10.68,6.5-16.75,14.8-16.75a12.67,12.67,0,0,1,9.34,4.07l-4,4.47a6.91,6.91,0,0,0-5.36-2.29c-4.19,0-7.34,3.86-7.34,10.26,0,6.57,2.59,10.39,7.63,10.39a4.82,4.82,0,0,0,3.1-.95v-5.52h-4.64v-5.9h11.13V154a15.33,15.33,0,0,1-10,3.87C406.15,157.89,399.64,152.27,399.64,141.49Z" transform="translate(0 -0.78)"/><rect class="a" width="5.21" height="161.71"/></svg>