<svg xmlns="http://www.w3.org/2000/svg" width="858.86" height="360.89" viewBox="0 0 858.86 360.89"><defs><style>.a{fill:#1f2556;}</style></defs><title>Asset 1</title><path class="a" d="M25.42,17.17H45.27L64,79.18H46.6L39.64,49c-1.34-5.91-3.15-13.35-4.49-19.65h-.38c-1.33,6.3-3,13.74-4.29,19.65l-7,30.15H6.73ZM20.18,53.32H50.32V66H20.18Z" transform="translate(-6.73 -5.72)"/><path class="a" d="M71.78,55.33c0-15.65,9.93-25,19.94-25a14,14,0,0,1,11.16,4.77h.39l-.77-6.87V12.78h16.41v66.4H105.55l-1.14-4.39H104c-3.34,3.24-8,5.53-12.31,5.53C79.61,80.32,71.78,70.78,71.78,55.33Zm30.72,8.2V46a8.88,8.88,0,0,0-6.29-2.29c-4,0-7.64,3.05-7.64,11.45C88.57,63.72,91.34,67,96,67A7,7,0,0,0,102.5,63.53Z" transform="translate(-6.73 -5.72)"/><path class="a" d="M133.6,55.33c0-15.65,12.21-25,25-25,15.08,0,22.71,10.31,22.71,23.09a43.3,43.3,0,0,1-.67,6.87H146V49.6h23.28L167,52.47c0-6.3-2.48-9.73-7.82-9.73-6.3,0-9.74,4-9.74,12.59,0,9,4.39,12.59,13.17,12.59a26.62,26.62,0,0,0,11.45-2.86l5.34,9.73a37.89,37.89,0,0,1-19.08,5.53C145.24,80.32,133.6,71.16,133.6,55.33Z" transform="translate(-6.73 -5.72)"/><path class="a" d="M208,59.53v-34H193.7V12.78h30.71V60.1c0,5.53,3.82,7.06,7.16,7.06a20.49,20.49,0,0,0,6.87-1.34l3.53,12c-5.15,1.53-8.59,2.48-14.79,2.48C214.49,80.32,208,71.93,208,59.53Z" transform="translate(-6.73 -5.72)"/><path class="a" d="M256.08,65.63c0-10.68,8.4-16.22,30.15-17.36-.57-3.44-3.82-5-9.16-5-4,0-8,1.33-13.74,4l-5.72-10.68c7.25-4,14.69-6.3,22.7-6.3,13.55,0,22.33,6.68,22.33,22.33V79.18H289.28l-1.14-5h-.39c-4.67,3.43-10.3,6.1-16.21,6.1C261.62,80.32,256.08,73.45,256.08,65.63Zm30.15-1.53V58c-11.64.38-14.5,3-14.5,6.29,0,2.2,1.72,3.44,5.15,3.44C280.7,67.73,283.65,66,286.23,64.1Z" transform="translate(-6.73 -5.72)"/><path class="a" d="M337.17,44.26H319V31.48h34.54v47.7H337.17Zm-2.86-28.81c0-5.72,4.38-9.73,10.49-9.73s10.49,4,10.49,9.73S350.91,25,344.8,25,334.31,21.18,334.31,15.45Z" transform="translate(-6.73 -5.72)"/><path class="a" d="M377,55.33c0-15.65,9.92-25,19.94-25a14,14,0,0,1,11.16,4.77h.38l-.76-6.87V12.78h16.41v66.4H410.81l-1.14-4.39h-.38c-3.34,3.24-8,5.53-12.31,5.53C384.86,80.32,377,70.78,377,55.33Zm30.72,8.2V46a8.9,8.9,0,0,0-6.3-2.29c-4,0-7.63,3.05-7.63,11.45,0,8.58,2.77,11.83,7.44,11.83A7,7,0,0,0,407.76,63.53Z" transform="translate(-6.73 -5.72)"/><path class="a" d="M438.86,55.33c0-15.65,12.21-25,25-25,15.07,0,22.7,10.31,22.7,23.09a43.59,43.59,0,0,1-.66,6.87H451.26V49.6h23.27l-2.28,2.87c0-6.3-2.49-9.73-7.83-9.73-6.29,0-9.73,4-9.73,12.59,0,9,4.39,12.59,13.17,12.59a26.58,26.58,0,0,0,11.44-2.86l5.35,9.73a37.92,37.92,0,0,1-19.08,5.53C450.49,80.32,438.86,71.16,438.86,55.33Z" transform="translate(-6.73 -5.72)"/><path class="a" d="M97.57,133.63h46.12v9.5H108.84V165.9H138.4v9.5H108.84v31.74H97.57Z" transform="translate(-6.73 -5.72)"/><path class="a" d="M163.5,186.32v-34h11.18v32.56c0,9.49,3.18,14,11.42,14,5.73,0,9.89-2.55,15.36-9.05V152.29h11.19v54.85h-9.24l-.89-9.14h-.45c-5.35,6.21-11.6,10.49-19.92,10.49C169.3,208.49,163.5,200.6,163.5,186.32Z" transform="translate(-6.73 -5.72)"/><path class="a" d="M237,152.29h9.14L247,161h.45c5.5-5.64,11.74-10.1,20.21-10.1,12.83,0,18.67,7.89,18.67,22.17v34H275.15V174.58c0-9.57-3.22-14-11.35-14-6,0-10,2.94-15.65,8.74v37.82H237Z" transform="translate(-6.73 -5.72)"/><path class="a" d="M307.58,179.81c0-18.36,14.21-28.87,30.88-28.87a28.36,28.36,0,0,1,20.13,7.87l-5.38,7.06c-4.43-3.63-8.94-5.73-14.26-5.73-11.8,0-19.92,7.85-19.92,19.67s8,19.49,19.61,19.49c6.5,0,11.91-2.91,16.27-6.45l4.81,7.19a33.47,33.47,0,0,1-22,8.45C320.55,208.49,307.58,198,307.58,179.81Z" transform="translate(-6.73 -5.72)"/><path class="a" d="M393,185.44V161.22H377.91v-8.35l15.55-.58,1.47-17.39h9.27v17.39h25.88v8.93H404.2v24.25c0,9.43,3.34,14,13.27,14A35.13,35.13,0,0,0,430,197.13l2.28,8.17a50.72,50.72,0,0,1-17.36,3.19C398.48,208.49,393,199.21,393,185.44Z" transform="translate(-6.73 -5.72)"/><path class="a" d="M477,161.22H452.42v-8.93h35.71v54.85H477Zm-3.64-27.61c0-4.72,3.52-8,8.33-8s8.33,3.26,8.33,8-3.52,7.94-8.33,7.94S473.31,138.43,473.31,133.61Z" transform="translate(-6.73 -5.72)"/><path class="a" d="M520.86,179.81c0-18.36,12.86-28.87,27.31-28.87s27.32,10.51,27.32,28.87c0,18.18-12.86,28.68-27.32,28.68S520.86,198,520.86,179.81Zm43.18,0c0-11.82-6.16-19.67-15.87-19.67S532.3,168,532.3,179.81s6.17,19.49,15.87,19.49S564,191.54,564,179.81Z" transform="translate(-6.73 -5.72)"/><path class="a" d="M596.17,152.29h9.14l.89,8.75h.45c5.5-5.64,11.74-10.1,20.21-10.1,12.83,0,18.67,7.89,18.67,22.17v34H634.35V174.58c0-9.57-3.22-14-11.35-14-6,0-10,2.94-15.65,8.74v37.82H596.17Z" transform="translate(-6.73 -5.72)"/><path class="a" d="M666.61,192.66c0-12.3,11.16-18.35,38.85-20.43-.4-6.78-4-12.23-13.79-12.23-6.63,0-13.17,3-18.53,6.18l-4.27-7.46c6.15-3.8,15.27-7.78,24.8-7.78,15.11,0,23,8.68,23,23.17v33h-9.24l-.89-7.11h-.35c-5.87,4.59-13.5,8.46-21,8.46C674.68,208.49,666.61,202.32,666.61,192.66Zm38.85-.42V179.39c-21.54,1.55-27.92,5.88-27.92,12.43,0,5.51,4.94,7.79,10.81,7.79S699.79,196.86,705.46,192.24Z" transform="translate(-6.73 -5.72)"/><path class="a" d="M756.46,187.94V136.48H737.61v-8.93h30v61.07c0,7.6,4.31,10.68,10.34,10.68a24.41,24.41,0,0,0,9.82-2.3l2.69,8.3c-5.24,2.07-8.92,3.19-15.12,3.19C763.09,208.49,756.46,201.17,756.46,187.94Z" transform="translate(-6.73 -5.72)"/><path class="a" d="M94.11,268.33H117.3c16.18,0,27.64,5.56,27.64,22.15,0,16-11.64,23.31-27.64,23.31H105.39v28H94.11Zm22.11,36.4c11.84,0,17.53-4.55,17.53-14.25s-5.87-13.09-17.53-13.09H105.39v27.34Z" transform="translate(-6.73 -5.72)"/><path class="a" d="M170.72,287H180l1,12.72h.27c5.66-8.93,14.11-14.06,23.9-14.06a23,23,0,0,1,10.76,2.24l-2.45,9.5a27.82,27.82,0,0,0-10-1.75c-7.86,0-15.44,4-21.51,15.08v31.12H170.72Z" transform="translate(-6.73 -5.72)"/><path class="a" d="M233.5,314.51c0-18.36,12.86-28.86,27.32-28.86s27.31,10.5,27.31,28.86c0,18.18-12.86,28.68-27.31,28.68S233.5,332.69,233.5,314.51Zm43.19,0c0-11.82-6.17-19.67-15.87-19.67S245,302.69,245,314.51,251.11,334,260.82,334,276.69,326.24,276.69,314.51Z" transform="translate(-6.73 -5.72)"/><path class="a" d="M306.47,351.69c0-4.42,3.1-8.63,8.9-11.87v-.45a10.1,10.1,0,0,1-5.61-9.11c0-3.54,2.44-7.49,6.55-10.28v-.45a17.24,17.24,0,0,1-6.9-14.18c0-12.28,10.23-19.7,22.07-19.7a23.83,23.83,0,0,1,8.35,1.34h22.59v8.72H349a15.45,15.45,0,0,1,4,10c0,12-9.5,18.72-21.58,18.72a24.34,24.34,0,0,1-8.81-1.79c-2.44,1.56-3.8,3.33-3.8,5.72,0,3.93,3.84,5.74,10.85,5.74h11.74c14.17,0,21.25,3.72,21.25,13.14,0,10.57-12.09,19.33-31.07,19.33C316.08,366.61,306.47,361.43,306.47,351.69Zm45.42-2.6c0-4.74-4-6-11.77-6H330.4a31.69,31.69,0,0,1-8.35-.86c-4.55,2.53-6.18,5.3-6.18,8.15,0,5.33,6,8.54,16.88,8.54C344.48,358.91,351.89,354.24,351.89,349.09ZM343,305.35c0-7.18-5.15-11.84-11.5-11.84S320,298.17,320,305.35c0,7.39,5.23,12,11.49,12S343,312.74,343,305.35Z" transform="translate(-6.73 -5.72)"/><path class="a" d="M386.24,287h9.25l1,12.72h.27c5.66-8.93,14.11-14.06,23.9-14.06a23,23,0,0,1,10.76,2.24l-2.45,9.5a27.82,27.82,0,0,0-10-1.75c-7.86,0-15.44,4-21.51,15.08v31.12H386.24Z" transform="translate(-6.73 -5.72)"/><path class="a" d="M451.09,327.36c0-12.3,11.16-18.35,38.86-20.43-.41-6.78-4-12.23-13.79-12.23-6.64,0-13.18,3-18.54,6.18l-4.27-7.46c6.15-3.8,15.28-7.77,24.8-7.77,15.11,0,23,8.68,23,23.16v33h-9.24l-.89-7.11h-.35c-5.87,4.59-13.5,8.46-21,8.46C459.16,343.19,451.09,337,451.09,327.36Zm38.86-.42V314.09C468.4,315.64,462,320,462,326.52c0,5.51,4.94,7.79,10.81,7.79S484.27,331.56,490,326.94Z" transform="translate(-6.73 -5.72)"/><path class="a" d="M520.34,287h8.71l.89,7.1h.26c2.62-4.9,6-8.44,12.36-8.44,5.24,0,8.65,3.14,10.16,9.34,2.85-5.63,6.36-9.34,12.67-9.34,7.72,0,12.21,6.18,12.21,17.13v39.06H566.72V303.58c0-5.56-1.55-8.39-5.11-8.39-3.37,0-5.25,2.53-7.81,7.64v39h-9.66V303.58c0-5.56-1.43-8.39-5-8.39-3.35,0-5.55,2.53-7.93,7.64v39H520.34Z" transform="translate(-6.73 -5.72)"/><path class="a" d="M592.18,287h8.71l.89,7.1H602c2.62-4.9,6-8.44,12.36-8.44,5.24,0,8.65,3.14,10.16,9.34,2.85-5.63,6.36-9.34,12.67-9.34,7.72,0,12.21,6.18,12.21,17.13v39.06H638.56V303.58c0-5.56-1.55-8.39-5.11-8.39-3.37,0-5.25,2.53-7.81,7.64v39H616V303.58c0-5.56-1.43-8.39-5-8.39-3.35,0-5.55,2.53-7.93,7.64v39H592.18Z" transform="translate(-6.73 -5.72)"/><path class="a" d="M692.47,295.92H667.94V287h35.71v54.85H692.47Zm-3.64-27.6c0-4.73,3.52-8,8.33-8s8.33,3.26,8.33,8-3.52,7.93-8.33,7.93S688.83,273.13,688.83,268.32Z" transform="translate(-6.73 -5.72)"/><path class="a" d="M739.85,287H749l.89,8.75h.45c5.5-5.64,11.74-10.09,20.21-10.09,12.83,0,18.67,7.88,18.67,22.17v34H778V309.28c0-9.57-3.22-14-11.35-14-6,0-10,2.94-15.65,8.74v37.82H739.85Z" transform="translate(-6.73 -5.72)"/><path class="a" d="M809.35,351.69c0-4.42,3.1-8.63,8.9-11.87v-.45a10.1,10.1,0,0,1-5.61-9.11c0-3.54,2.44-7.49,6.55-10.28v-.45a17.24,17.24,0,0,1-6.9-14.18c0-12.28,10.23-19.7,22.07-19.7a23.83,23.83,0,0,1,8.35,1.34H865.3v8.72H851.91a15.45,15.45,0,0,1,4,10c0,12-9.5,18.72-21.58,18.72a24.34,24.34,0,0,1-8.81-1.79c-2.44,1.56-3.81,3.33-3.81,5.72,0,3.93,3.84,5.74,10.86,5.74h11.73c14.18,0,21.25,3.72,21.25,13.14,0,10.57-12.08,19.33-31.06,19.33C819,366.61,809.35,361.43,809.35,351.69Zm45.42-2.6c0-4.74-4-6-11.77-6h-9.72a31.69,31.69,0,0,1-8.35-.86c-4.55,2.53-6.18,5.3-6.18,8.15,0,5.33,6,8.54,16.88,8.54C847.35,358.91,854.77,354.24,854.77,349.09Zm-8.91-43.74c0-7.18-5.15-11.84-11.5-11.84s-11.49,4.66-11.49,11.84c0,7.39,5.23,12,11.49,12S845.86,312.74,845.86,305.35Z" transform="translate(-6.73 -5.72)"/><path class="a" d="M11.88,193.44l32.83-21.35v-.46L11.88,150.28V137.82L56.05,167v9.66L11.88,205.9Z" transform="translate(-6.73 -5.72)"/></svg>